<?xml version="1.0" encoding="UTF-8"?>
<svg id="Layer_1" xmlns="http://www.w3.org/2000/svg" version="1.1" viewBox="0 0 566.9 166.9">
  <!-- Generator: Adobe Illustrator 30.0.0, SVG Export Plug-In . SVG Version: 2.1.1 Build 123)  -->
  <defs>
    <style>
      .st0 {
        fill: #fff;
      }
    </style>
  </defs>
  <g>
    <path class="st0" d="M104.9,55.4c-.5-.5-1.1-.7-1.9-.7s-1.4.2-1.9.7c-.5.5-.7,1.1-.7,1.9s.2,1.4.7,1.9c.5.5,1.1.7,1.9.7s1.4-.2,1.9-.7c.5-.5.7-1.1.7-1.9s-.2-1.5-.7-1.9M98.8,55.4c-.5-.5-1.1-.7-1.9-.7s-1.5.2-1.9.7c-.5.5-.7,1.1-.7,1.9s.2,1.4.7,1.9c.5.5,1.1.7,1.9.7s1.4-.2,1.9-.7c.5-.5.7-1.1.7-1.9s-.2-1.5-.7-1.9"/>
    <path class="st0" d="M186.2,53.9c-.5-.5-1.1-.8-1.9-.8s-1.4.2-1.9.8c-.5.5-.8,1.1-.8,1.9s.3,1.4.8,1.9c.5.5,1.2.7,1.9.7s1.4-.2,1.9-.7c.5-.5.7-1.1.7-1.9s-.2-1.3-.7-1.9"/>
    <path class="st0" d="M244.1,74.5h.3-.3"/>
    <path class="st0" d="M264.2,61.2c-.6-1.2-1.5-2.1-2.6-2.8-1.1-.7-2.4-1-3.9-1s-3.1.6-4.4,1.7c-1.4,1.1-2.5,2.7-3.5,4.6-.5,1-1,1.8-1.5,2.6-.5.8-1,1.3-1.5,1.5-.3,0-.6.2-1.1.3-.3,0-.8,0-1.3,0h-54.3c-1,0-1.6-.2-2.1-.7-.5-.5-.7-1.2-.7-2.3v-4.4h-5.5c0,1.6,0,3,0,4.3s0,2.1,0,2.5c-.4.2-.9.3-1.7.4-.7,0-1.4.2-2.1.2h-59.9c-.8,0-1.5-.2-2-.6-.6-.5-.8-1-.8-1.8v-5h-5.5v6.6c-1,.3-2.3.5-4.1.7-1.8.2-3.8.3-6,.3s-3.8-.2-5.5-.7c-1.7-.5-2.9-1.1-3.9-1.9-.9-.8-1.4-1.8-1.4-2.8v-1.3h-4.7v2.6c0,2.1.6,4,1.8,5.6,1.2,1.7,2.9,2.9,5.1,3.8,2.2.9,4.8,1.3,7.7,1.3s3.6-.2,5.3-.6c1.6-.4,3-1,4.2-1.7,1.1-.7,1.9-1.5,2.4-2.5h.2c.3,1.3,1,2.3,2.2,3.1,1.1.8,2.5,1.2,4,1.2h60.4c0,0,.2,0,.2,0,1.3,0,2.4-.4,3.2-1.3.9-.8,1.4-2,1.7-3.4h.2c.3,1.5.9,2.7,2,3.5,1.1.8,2.4,1.2,4.2,1.2h54.9c.1,0,.2,0,.3,0,.9,0,1.7-.2,2.4-.4.9-.3,1.7-.7,2.3-1.3.6-.6,1.1-1.3,1.4-2.2h.2c.7,1.2,1.6,2.1,2.7,2.8,1.1.7,2.4,1.1,3.9,1.1,1.5.2,2.9,0,4.1-.8,1.2-.7,2.1-1.8,2.8-3.3.6-1.5.9-3.3.9-5.3s-.3-2.7-.9-3.9M260.9,67.7c-.2.3-.5.5-.8.6-.3.1-.8.2-1.3.2-.5,0-1,0-1.6-.2-.6-.2-1.3-.4-2-.7-.7-.3-1.3-.6-1.8-.9.4-1,1-1.8,1.7-2.4.7-.6,1.5-.9,2.4-.9s1.6.2,2.1.6c.6.4,1,.9,1.2,1.5.2.6.2,1.3,0,2.1"/>
    <path class="st0" d="M297.1,69.6c0,2.4-.5,4.5-1.5,6.3-1,1.8-2.5,3.2-4.4,4.2-1.9,1-4.1,1.5-6.6,1.5s-4.5-.5-6.4-1.4c-1.8-.9-3.2-2.3-4.2-4-1-1.7-1.5-3.7-1.5-6v-4h4.4v2.6c0,1.3.3,2.4,1,3.3.7.9,1.6,1.7,2.8,2.2,1.2.5,2.4.8,3.8.8,2.1,0,3.8-.5,5.1-1.4,1.3-.9,1.9-2.2,1.9-3.8v-7.9h5.5v7.7ZM287,59.2c0,.8-.2,1.4-.7,1.9s-1.1.7-1.9.7-1.4-.2-1.9-.7c-.5-.5-.7-1.1-.7-1.9s.2-1.4.7-1.9c.5-.5,1.1-.7,1.9-.7s1.4.2,1.9.7c.5.5.7,1.1.7,1.9"/>
    <path class="st0" d="M315.7,71.1c0,2.4-.4,4.6-1.3,6.4-.9,1.8-2.1,3.2-3.7,4.2-1.6,1-3.5,1.5-5.6,1.5-.5,0-1,0-1.5,0-.5,0-1-.1-1.4-.2l-1.4-6.1c.5,0,.9.2,1.4.2.5,0,.9.1,1.4.2,1.5.1,2.8,0,4-.2,1.2-.2,2.1-.6,2.8-1.2.7-.5,1.2-1.2,1.4-2-.7.2-1.4.4-2.1.5-.7.1-1.3.2-1.9.3-1.8.1-3.4,0-4.8-.6-1.4-.6-2.4-1.4-3.1-2.6-.7-1.2-1.1-2.7-1.1-4.4s.4-3.7,1-5.2c.7-1.5,1.7-2.7,3-3.5,1.3-.8,2.8-1.3,4.4-1.3s3.1.6,4.4,1.7c1.3,1.2,2.3,2.8,3,4.9.7,2.1,1,4.5,1,7.2M302.8,66.7c0,.5.4.9,1.2,1.3.8.4,1.9.6,3.2.6.7,0,1.4.1,2.1.1s1.4,0,1.9-.1c-.2-1.3-.7-2.5-1.4-3.3-.7-.9-1.6-1.3-2.7-1.4-.6,0-1.2,0-1.8.3-.6.2-1.1.6-1.5,1-.4.4-.7.9-1,1.5"/>
    <path class="st0" d="M95.1,119.9c-2.7,0-5.1-.6-7.2-1.8-2.1-1.2-3.7-2.9-4.8-5.1-1.1-2.2-1.7-4.7-1.7-7.5s.6-5.5,1.7-7.7,2.8-3.9,4.9-5.1c2.1-1.2,4.5-1.8,7.2-1.8s5.2.6,7.2,1.8c2.1,1.2,3.7,2.8,4.9,5,1.2,2.1,1.7,4.6,1.7,7.4s-.6,5.6-1.7,7.8c-1.2,2.2-2.8,3.9-4.9,5.1-2.1,1.2-4.5,1.8-7.3,1.8M95.2,114.5c1.3,0,2.4-.4,3.4-1.2,1-.8,1.8-1.8,2.3-3.2.6-1.4.8-3,.8-4.8s-.3-3.3-.8-4.6c-.6-1.3-1.3-2.4-2.3-3.1s-2.2-1.1-3.5-1.1-2.4.4-3.4,1.1c-1,.8-1.8,1.8-2.3,3.2-.5,1.3-.8,2.9-.8,4.7s.3,3.4.8,4.7c.6,1.4,1.3,2.4,2.3,3.2,1,.7,2.1,1.1,3.4,1.1"/>
    <polygon class="st0" points="112.8 92.3 120.6 92.3 129.7 108.4 129.7 92.3 135.9 92.3 135.9 118.6 129.2 118.6 118.9 100.9 118.9 118.6 112.8 118.6 112.8 92.3"/>
    <polygon class="st0" points="141.1 92.3 159.6 92.3 159.6 97.6 148 97.6 148 102.8 157.4 102.8 157.4 107.7 148 107.7 148 113.3 160.2 113.3 160.2 118.6 141.1 118.6 141.1 92.3"/>
    <polygon class="st0" points="169.9 92.3 178.9 92.3 184.5 107.3 190.9 92.3 199.7 92.3 199.7 118.6 192.8 118.6 192.8 101.2 192.5 101.2 185.2 118.6 182.9 118.6 176.4 101.2 176.1 101.2 176.1 118.6 169.9 118.6 169.9 92.3"/>
    <rect class="st0" x="205" y="92.3" width="7" height="26.3"/>
    <polygon class="st0" points="217.4 92.3 225.2 92.3 234.3 108.4 234.3 92.3 240.5 92.3 240.5 118.6 233.8 118.6 223.5 100.9 223.5 118.6 217.4 118.6 217.4 92.3"/>
    <path class="st0" d="M257,119c-2.3,0-4.3-.5-6.1-1.4-1.7-.9-3.1-2.2-4.1-3.8-1-1.7-1.5-3.6-1.5-5.8v-15.7h6.9v15.5c0,1.1.2,2.1.6,3,.4.9.9,1.6,1.6,2,.7.5,1.5.7,2.4.7s1.7-.2,2.4-.7c.7-.5,1.2-1.2,1.6-2.1.4-.9.6-1.9.6-3.1v-15.4h7v15.6c0,2.2-.5,4.1-1.5,5.8-1,1.7-2.3,3-4.1,3.9-1.7.9-3.7,1.4-6,1.4"/>
    <polygon class="st0" points="278.7 97.7 271.7 97.7 271.7 92.3 292.8 92.3 292.8 97.7 285.7 97.7 285.7 118.6 278.7 118.6 278.7 97.7"/>
    <polygon class="st0" points="296.2 92.3 314.7 92.3 314.7 97.6 303.1 97.6 303.1 102.8 312.4 102.8 312.4 107.7 303.1 107.7 303.1 113.3 315.3 113.3 315.3 118.6 296.2 118.6 296.2 92.3"/>
  </g>
  <g>
    <path class="st0" d="M384.3,84.4c0,1.3-.2,2.5-.5,3.5-.4,1-.8,1.8-1.5,2.4-.6.6-1.4.8-2.2.8s-1.6-.3-2.2-.8c-.6-.6-1.1-1.3-1.5-2.3-.4-1-.5-2.2-.5-3.5s.2-2.7.5-3.8c.4-1.1.8-1.9,1.5-2.5.6-.6,1.4-.9,2.2-.9s1.6.3,2.2.9c.6.6,1.1,1.4,1.5,2.5.4,1.1.5,2.3.5,3.8"/>
    <path class="st0" d="M405.4,80.6c-.4-1.1-.9-1.9-1.5-2.5-.6-.6-1.4-.9-2.2-.9s-1.6.3-2.2.9c-.6.6-1.1,1.4-1.5,2.5-.4,1.1-.5,2.3-.5,3.8s.2,2.5.5,3.5c.4,1,.9,1.8,1.5,2.3.6.6,1.4.8,2.2.8s1.6-.3,2.2-.8c.6-.6,1.1-1.4,1.5-2.4.4-1,.5-2.2.5-3.5s-.2-2.7-.5-3.8M405.4,80.6c-.4-1.1-.9-1.9-1.5-2.5-.6-.6-1.4-.9-2.2-.9s-1.6.3-2.2.9c-.6.6-1.1,1.4-1.5,2.5-.4,1.1-.5,2.3-.5,3.8s.2,2.5.5,3.5c.4,1,.9,1.8,1.5,2.3.6.6,1.4.8,2.2.8s1.6-.3,2.2-.8c.6-.6,1.1-1.4,1.5-2.4.4-1,.5-2.2.5-3.5s-.2-2.7-.5-3.8M405.4,80.6c-.4-1.1-.9-1.9-1.5-2.5-.6-.6-1.4-.9-2.2-.9s-1.6.3-2.2.9c-.6.6-1.1,1.4-1.5,2.5-.4,1.1-.5,2.3-.5,3.8s.2,2.5.5,3.5c.4,1,.9,1.8,1.5,2.3.6.6,1.4.8,2.2.8s1.6-.3,2.2-.8c.6-.6,1.1-1.4,1.5-2.4.4-1,.5-2.2.5-3.5s-.2-2.7-.5-3.8M435,80.6c-.4-1.1-.9-1.9-1.5-2.5-.6-.6-1.4-.9-2.2-.9s-1.6.3-2.2.9c-.6.6-1.1,1.4-1.5,2.5-.4,1.1-.5,2.3-.5,3.8s.2,2.5.5,3.5c.4,1,.9,1.8,1.5,2.3.6.6,1.4.8,2.2.8s1.6-.3,2.2-.8c.6-.6,1.1-1.4,1.5-2.4.4-1,.5-2.2.5-3.5s-.2-2.7-.5-3.8M435,80.6c-.4-1.1-.9-1.9-1.5-2.5-.6-.6-1.4-.9-2.2-.9s-1.6.3-2.2.9c-.6.6-1.1,1.4-1.5,2.5-.4,1.1-.5,2.3-.5,3.8s.2,2.5.5,3.5c.4,1,.9,1.8,1.5,2.3.6.6,1.4.8,2.2.8s1.6-.3,2.2-.8c.6-.6,1.1-1.4,1.5-2.4.4-1,.5-2.2.5-3.5s-.2-2.7-.5-3.8M405.4,80.6c-.4-1.1-.9-1.9-1.5-2.5-.6-.6-1.4-.9-2.2-.9s-1.6.3-2.2.9c-.6.6-1.1,1.4-1.5,2.5-.4,1.1-.5,2.3-.5,3.8s.2,2.5.5,3.5c.4,1,.9,1.8,1.5,2.3.6.6,1.4.8,2.2.8s1.6-.3,2.2-.8c.6-.6,1.1-1.4,1.5-2.4.4-1,.5-2.2.5-3.5s-.2-2.7-.5-3.8M424.2,9.8h-24.5c-55.2,0-61.3,6.1-61.3,61.4v24.5c0,55.2,6.1,61.4,61.3,61.4h24.5c55.2,0,61.3-6.1,61.3-61.4v-24.5c0-55.2-6.1-61.4-61.3-61.4M387.8,89.8c-.8,1.6-1.8,2.8-3.2,3.7-1.4.9-2.9,1.3-4.7,1.3s-3.3-.4-4.6-1.3c-1.3-.9-2.3-2.1-3.1-3.6-.7-1.6-1.1-3.4-1.1-5.4s.4-4,1.1-5.6c.7-1.6,1.8-2.9,3.1-3.8,1.3-.9,2.9-1.4,4.6-1.4s3.3.4,4.7,1.3c1.3.9,2.4,2.1,3.1,3.8.7,1.6,1.1,3.5,1.1,5.6s-.4,3.9-1.1,5.5M409.4,89.8c-.7,1.6-1.8,2.8-3.2,3.7-1.4.9-2.9,1.3-4.7,1.3s-3.3-.4-4.6-1.3c-1.3-.9-2.3-2.1-3.1-3.6-.7-1.6-1.1-3.4-1.1-5.4s.4-4,1.1-5.6c.7-1.6,1.8-2.9,3.1-3.8,1.3-.9,2.9-1.4,4.6-1.4s3.3.4,4.7,1.3c1.3.9,2.4,2.1,3.1,3.8.7,1.6,1.1,3.5,1.1,5.6s-.4,3.9-1.1,5.5M418.5,94.5h-3.5s0,0,0,0v-3.5s0,0,0,0h3.5v3.5ZM418.5,77.1h-3.5v-3.5h3.5v3.5ZM439.1,89.8c-.8,1.6-1.8,2.8-3.2,3.7-1.4.9-2.9,1.3-4.7,1.3s-3.3-.4-4.6-1.3c-1.3-.9-2.3-2.1-3.1-3.6-.7-1.6-1.1-3.4-1.1-5.4s.4-4,1.1-5.6c.7-1.6,1.8-2.9,3.1-3.8,1.3-.9,2.9-1.4,4.6-1.4s3.3.4,4.7,1.3c1.3.9,2.4,2.1,3.1,3.8.7,1.6,1.1,3.5,1.1,5.6s-.4,3.9-1.1,5.5M452.8,94.3h-4.5v-17.6l-4.7,2.9v-3.7l5.4-3.6h3.7v22.1ZM433.5,78.1c-.6-.6-1.4-.9-2.2-.9s-1.6.3-2.2.9c-.6.6-1.1,1.4-1.5,2.5-.4,1.1-.5,2.3-.5,3.8s.2,2.5.5,3.5c.4,1,.9,1.8,1.5,2.3.6.6,1.4.8,2.2.8s1.6-.3,2.2-.8c.6-.6,1.1-1.4,1.5-2.4.4-1,.5-2.2.5-3.5s-.2-2.7-.5-3.8c-.4-1.1-.9-1.9-1.5-2.5M403.9,78.1c-.6-.6-1.4-.9-2.2-.9s-1.6.3-2.2.9c-.6.6-1.1,1.4-1.5,2.5-.4,1.1-.5,2.3-.5,3.8s.2,2.5.5,3.5c.4,1,.9,1.8,1.5,2.3.6.6,1.4.8,2.2.8s1.6-.3,2.2-.8c.6-.6,1.1-1.4,1.5-2.4.4-1,.5-2.2.5-3.5s-.2-2.7-.5-3.8c-.4-1.1-.9-1.9-1.5-2.5M405.4,80.6c-.4-1.1-.9-1.9-1.5-2.5-.6-.6-1.4-.9-2.2-.9s-1.6.3-2.2.9c-.6.6-1.1,1.4-1.5,2.5-.4,1.1-.5,2.3-.5,3.8s.2,2.5.5,3.5c.4,1,.9,1.8,1.5,2.3.6.6,1.4.8,2.2.8s1.6-.3,2.2-.8c.6-.6,1.1-1.4,1.5-2.4.4-1,.5-2.2.5-3.5s-.2-2.7-.5-3.8M405.4,80.6c-.4-1.1-.9-1.9-1.5-2.5-.6-.6-1.4-.9-2.2-.9s-1.6.3-2.2.9c-.6.6-1.1,1.4-1.5,2.5-.4,1.1-.5,2.3-.5,3.8s.2,2.5.5,3.5c.4,1,.9,1.8,1.5,2.3.6.6,1.4.8,2.2.8s1.6-.3,2.2-.8c.6-.6,1.1-1.4,1.5-2.4.4-1,.5-2.2.5-3.5s-.2-2.7-.5-3.8M405.4,80.6c-.4-1.1-.9-1.9-1.5-2.5-.6-.6-1.4-.9-2.2-.9s-1.6.3-2.2.9c-.6.6-1.1,1.4-1.5,2.5-.4,1.1-.5,2.3-.5,3.8s.2,2.5.5,3.5c.4,1,.9,1.8,1.5,2.3.6.6,1.4.8,2.2.8s1.6-.3,2.2-.8c.6-.6,1.1-1.4,1.5-2.4.4-1,.5-2.2.5-3.5s-.2-2.7-.5-3.8M405.4,80.6c-.4-1.1-.9-1.9-1.5-2.5-.6-.6-1.4-.9-2.2-.9s-1.6.3-2.2.9c-.6.6-1.1,1.4-1.5,2.5-.4,1.1-.5,2.3-.5,3.8s.2,2.5.5,3.5c.4,1,.9,1.8,1.5,2.3.6.6,1.4.8,2.2.8s1.6-.3,2.2-.8c.6-.6,1.1-1.4,1.5-2.4.4-1,.5-2.2.5-3.5s-.2-2.7-.5-3.8"/>
  </g>
</svg>