<?xml version="1.0" encoding="UTF-8"?>
<svg id="Layer_1" xmlns="http://www.w3.org/2000/svg" version="1.1" viewBox="0 0 529.2 192.8">
  <!-- Generator: Adobe Illustrator 30.0.0, SVG Export Plug-In . SVG Version: 2.1.1 Build 123)  -->
  <defs>
    <style>
      .st0 {
        fill: #552c80;
      }
    </style>
  </defs>
  <g>
    <path class="st0" d="M30.9,59.7c-.6-.6-1.4-1-2.5-1s-1.8.3-2.5,1c-.6.6-1,1.4-1,2.5s.3,1.8,1,2.4c.6.6,1.5,1,2.5,1s1.9-.3,2.5-1c.6-.6.9-1.4.9-2.4s-.3-1.9-.9-2.5M22.8,59.7c-.6-.6-1.5-1-2.5-1s-1.9.3-2.5,1c-.6.6-.9,1.4-.9,2.5s.3,1.8.9,2.4c.6.6,1.4,1,2.5,1s1.8-.3,2.5-1c.6-.6.9-1.4.9-2.4s-.3-1.9-.9-2.5"/>
    <path class="st0" d="M137.2,57.7c-.6-.7-1.4-1-2.4-1s-1.8.3-2.5,1c-.6.7-1,1.5-1,2.4s.4,1.8,1,2.4c.7.6,1.5,1,2.5,1s1.8-.3,2.4-1c.6-.6,1-1.4,1-2.4s-.3-1.8-1-2.4"/>
    <path class="st0" d="M213,84.7h.4-.4"/>
    <path class="st0" d="M239.3,67.2c-.8-1.5-1.9-2.7-3.4-3.6-1.5-.9-3.2-1.3-5.1-1.3s-4,.7-5.8,2.2c-1.8,1.5-3.3,3.5-4.6,6.1-.6,1.3-1.2,2.4-2,3.4-.7,1-1.3,1.6-1.9,1.9-.4.1-.8.2-1.4.4-.4,0-1,.1-1.6.1h-71.1c-1.2,0-2.1-.3-2.7-.9-.6-.6-.9-1.6-.9-3v-5.8h-7.2c0,2.1,0,3.9,0,5.6s0,2.8,0,3.3c-.5.2-1.2.4-2.2.6-.9.1-1.8.2-2.8.2H48.2c-1.1,0-1.9-.3-2.6-.8-.7-.6-1-1.4-1-2.3v-6.5h-7.2v8.7c-1.2.4-3,.7-5.4.9-2.4.2-5,.4-7.9.4s-5-.3-7.1-.9c-2.2-.6-3.8-1.4-5.1-2.5-1.2-1.1-1.9-2.3-1.9-3.7v-1.7H3.9v3.4c0,2.8.8,5.3,2.4,7.4,1.6,2.2,3.8,3.8,6.7,5,2.9,1.2,6.3,1.7,10,1.7s4.8-.2,6.9-.8c2.1-.6,3.9-1.3,5.5-2.2,1.5-.9,2.5-2,3.1-3.2h.2c.4,1.7,1.3,3,2.8,4.1,1.5,1,3.2,1.6,5.3,1.6h79.1c0,0,.2,0,.3,0,1.7,0,3.1-.6,4.2-1.6,1.2-1.1,1.9-2.6,2.2-4.4h.3c.4,2,1.2,3.5,2.6,4.5,1.4,1.1,3.2,1.6,5.5,1.6h71.9c.2,0,.3,0,.4,0,1.1,0,2.2-.2,3.2-.5,1.2-.4,2.2-.9,3-1.6.8-.7,1.4-1.6,1.8-2.8h.3c.9,1.5,2,2.7,3.5,3.7,1.4.9,3.2,1.4,5.1,1.4,2,.2,3.8-.1,5.3-1.1,1.6-.9,2.7-2.4,3.6-4.4.8-2,1.2-4.3,1.2-6.9s-.4-3.6-1.2-5.1M235,75.8c-.2.4-.6.6-1.1.8-.4.2-1,.3-1.7.3-.6,0-1.4,0-2.1-.3-.8-.2-1.6-.6-2.6-.9-.9-.4-1.7-.8-2.3-1.2.6-1.3,1.3-2.3,2.3-3.1,1-.8,2-1.2,3.1-1.2s2,.2,2.8.7c.8.5,1.3,1.2,1.5,2,.3.8.3,1.8,0,2.8"/>
    <path class="st0" d="M282.4,78.3c0,3.1-.7,5.9-2,8.3-1.3,2.4-3.2,4.2-5.7,5.5-2.5,1.3-5.3,1.9-8.6,1.9s-6-.6-8.3-1.8c-2.4-1.2-4.2-3-5.5-5.2-1.3-2.3-1.9-4.9-1.9-7.9v-5.3h5.7v3.4c0,1.7.5,3.1,1.4,4.4.9,1.2,2.1,2.2,3.7,2.9,1.5.7,3.2,1,5,1,2.8,0,5-.6,6.6-1.8,1.7-1.2,2.5-2.8,2.5-4.9v-10.3h7.2v10.1ZM269.3,64.7c0,1-.3,1.9-.9,2.5s-1.5.9-2.5.9-1.9-.3-2.5-.9c-.6-.6-1-1.5-1-2.5s.3-1.9,1-2.5c.6-.6,1.5-1,2.5-1s1.9.3,2.5,1c.6.6.9,1.5.9,2.5"/>
    <path class="st0" d="M306.8,80.3c0,3.2-.6,6-1.7,8.4-1.1,2.4-2.8,4.2-4.8,5.6-2.1,1.3-4.5,2-7.3,2-.6,0-1.3,0-1.9,0-.7,0-1.3-.1-1.9-.2l-1.8-7.9c.6.1,1.2.2,1.9.3.6,0,1.2.2,1.8.2,1.9.2,3.6,0,5.2-.2,1.5-.3,2.8-.8,3.7-1.5,1-.7,1.6-1.6,1.8-2.6-.9.3-1.8.5-2.7.7-.9.2-1.7.3-2.6.4-2.4.2-4.5,0-6.3-.8-1.8-.7-3.1-1.9-4.1-3.4-.9-1.6-1.4-3.5-1.4-5.7s.5-4.8,1.4-6.8c.9-2,2.2-3.5,3.9-4.6,1.7-1.1,3.6-1.7,5.8-1.7s4.1.8,5.8,2.3c1.7,1.5,3,3.6,3.9,6.4.9,2.7,1.4,5.9,1.4,9.5M290,74.4c0,.6.5,1.2,1.6,1.7,1.1.5,2.4.7,4.1.8.9,0,1.8.1,2.7.1s1.8,0,2.6-.1c-.3-1.8-.9-3.2-1.9-4.4-1-1.1-2.1-1.8-3.6-1.9-.8,0-1.6,0-2.4.4-.8.3-1.4.8-1.9,1.3-.5.6-1,1.2-1.3,2"/>
    <path class="st0" d="M17.9,144.2c-3.6,0-6.7-.8-9.4-2.4-2.7-1.6-4.8-3.8-6.3-6.6-1.5-2.9-2.2-6.1-2.2-9.9s.8-7.2,2.3-10c1.5-2.9,3.6-5.1,6.4-6.6,2.7-1.5,5.9-2.3,9.5-2.3s6.8.8,9.5,2.3c2.7,1.5,4.9,3.7,6.4,6.5,1.5,2.8,2.3,6,2.3,9.7s-.8,7.3-2.3,10.2c-1.5,2.9-3.7,5.1-6.4,6.7-2.8,1.6-6,2.4-9.6,2.4M18.1,137c1.7,0,3.2-.5,4.5-1.5,1.3-1,2.3-2.4,3-4.2.7-1.8,1.1-3.9,1.1-6.2s-.4-4.3-1.1-6.1c-.7-1.7-1.7-3.1-3-4.1-1.3-1-2.8-1.4-4.5-1.4s-3.2.5-4.5,1.5c-1.3,1-2.3,2.4-3,4.1-.7,1.8-1.1,3.8-1.1,6.2s.4,4.4,1.1,6.2c.7,1.8,1.7,3.2,3,4.1,1.3,1,2.8,1.5,4.5,1.5"/>
    <polygon class="st0" points="41.1 108 51.4 108 63.3 129.1 63.3 108 71.4 108 71.4 142.4 62.6 142.4 49.2 119.3 49.2 142.4 41.1 142.4 41.1 108"/>
    <polygon class="st0" points="78.2 108 102.4 108 102.4 115 87.2 115 87.2 121.7 99.5 121.7 99.5 128.1 87.2 128.1 87.2 135.4 103.2 135.4 103.2 142.4 78.2 142.4 78.2 108"/>
    <polygon class="st0" points="115.9 108 127.7 108 135 127.6 143.3 108 154.9 108 154.9 142.4 145.8 142.4 145.8 119.6 145.5 119.6 135.9 142.4 132.9 142.4 124.3 119.6 124 119.6 124 142.4 115.9 142.4 115.9 108"/>
    <rect class="st0" x="161.9" y="108" width="9.2" height="34.4"/>
    <polygon class="st0" points="178 108 188.3 108 200.3 129.1 200.3 108 208.4 108 208.4 142.4 199.5 142.4 186.1 119.3 186.1 142.4 178 142.4 178 108"/>
    <path class="st0" d="M230,142.9c-3,0-5.7-.6-7.9-1.8-2.3-1.2-4.1-2.9-5.3-5-1.3-2.2-1.9-4.7-1.9-7.5v-20.6h9.1v20.3c0,1.5.3,2.8.8,3.9.5,1.2,1.2,2,2.1,2.7.9.6,2,.9,3.2.9s2.2-.3,3.1-1c.9-.6,1.6-1.5,2.1-2.7.5-1.2.7-2.5.7-4v-20.1h9.1v20.5c0,2.9-.6,5.4-1.9,7.6-1.3,2.2-3,3.9-5.3,5.1-2.3,1.2-4.9,1.8-7.9,1.8"/>
    <polygon class="st0" points="258.4 115 249.2 115 249.2 108 276.8 108 276.8 115 267.5 115 267.5 142.4 258.4 142.4 258.4 115"/>
    <polygon class="st0" points="281.2 108 305.5 108 305.5 115 290.3 115 290.3 121.7 302.5 121.7 302.5 128.1 290.3 128.1 290.3 135.4 306.2 135.4 306.2 142.4 281.2 142.4 281.2 108"/>
  </g>
  <g>
    <path class="st0" d="M396.6,97.6c0,1.7-.2,3.3-.7,4.6-.5,1.4-1.1,2.4-1.9,3.1-.8.7-1.8,1.1-2.9,1.1s-2.1-.4-2.9-1.1c-.8-.7-1.5-1.8-2-3.1-.5-1.3-.7-2.9-.7-4.6s.2-3.5.7-4.9c.5-1.4,1.1-2.5,1.9-3.3.8-.8,1.8-1.2,2.9-1.2s2.1.4,2.9,1.2c.8.8,1.5,1.9,2,3.3.5,1.4.7,3.1.7,4.9"/>
    <path class="st0" d="M424.2,92.7c-.5-1.4-1.1-2.5-2-3.3-.8-.8-1.8-1.2-2.9-1.2s-2,.4-2.9,1.2c-.8.8-1.5,1.9-2,3.3-.5,1.4-.7,3.1-.7,4.9s.2,3.3.7,4.6c.5,1.3,1.1,2.4,2,3.1.8.7,1.8,1.1,2.9,1.1s2.1-.4,2.9-1.1c.8-.7,1.5-1.8,1.9-3.1.5-1.4.7-2.9.7-4.6s-.2-3.5-.7-4.9M424.2,92.7c-.5-1.4-1.1-2.5-2-3.3-.8-.8-1.8-1.2-2.9-1.2s-2,.4-2.9,1.2c-.8.8-1.5,1.9-2,3.3-.5,1.4-.7,3.1-.7,4.9s.2,3.3.7,4.6c.5,1.3,1.1,2.4,2,3.1.8.7,1.8,1.1,2.9,1.1s2.1-.4,2.9-1.1c.8-.7,1.5-1.8,1.9-3.1.5-1.4.7-2.9.7-4.6s-.2-3.5-.7-4.9M424.2,92.7c-.5-1.4-1.1-2.5-2-3.3-.8-.8-1.8-1.2-2.9-1.2s-2,.4-2.9,1.2c-.8.8-1.5,1.9-2,3.3-.5,1.4-.7,3.1-.7,4.9s.2,3.3.7,4.6c.5,1.3,1.1,2.4,2,3.1.8.7,1.8,1.1,2.9,1.1s2.1-.4,2.9-1.1c.8-.7,1.5-1.8,1.9-3.1.5-1.4.7-2.9.7-4.6s-.2-3.5-.7-4.9M463,92.7c-.5-1.4-1.1-2.5-2-3.3-.8-.8-1.8-1.2-2.9-1.2s-2.1.4-2.9,1.2c-.8.8-1.5,1.9-1.9,3.3-.5,1.4-.7,3.1-.7,4.9s.2,3.3.7,4.6c.5,1.3,1.1,2.4,2,3.1.8.7,1.8,1.1,2.9,1.1s2-.4,2.9-1.1c.8-.7,1.5-1.8,1.9-3.1.5-1.4.7-2.9.7-4.6s-.2-3.5-.7-4.9M463,92.7c-.5-1.4-1.1-2.5-2-3.3-.8-.8-1.8-1.2-2.9-1.2s-2.1.4-2.9,1.2c-.8.8-1.5,1.9-1.9,3.3-.5,1.4-.7,3.1-.7,4.9s.2,3.3.7,4.6c.5,1.3,1.1,2.4,2,3.1.8.7,1.8,1.1,2.9,1.1s2-.4,2.9-1.1c.8-.7,1.5-1.8,1.9-3.1.5-1.4.7-2.9.7-4.6s-.2-3.5-.7-4.9M424.2,92.7c-.5-1.4-1.1-2.5-2-3.3-.8-.8-1.8-1.2-2.9-1.2s-2,.4-2.9,1.2c-.8.8-1.5,1.9-2,3.3-.5,1.4-.7,3.1-.7,4.9s.2,3.3.7,4.6c.5,1.3,1.1,2.4,2,3.1.8.7,1.8,1.1,2.9,1.1s2.1-.4,2.9-1.1c.8-.7,1.5-1.8,1.9-3.1.5-1.4.7-2.9.7-4.6s-.2-3.5-.7-4.9M448.9,0h-32.1c-72.2,0-80.3,8-80.3,80.3v32.1c0,72.3,8,80.3,80.3,80.3h32.1c72.2,0,80.3-8,80.3-80.3v-32.1c0-72.3-8-80.3-80.3-80.3M401.2,104.7c-1,2.1-2.4,3.7-4.2,4.8-1.8,1.1-3.8,1.7-6.1,1.7s-4.3-.6-6-1.7c-1.7-1.1-3-2.7-4-4.8-1-2-1.4-4.4-1.4-7.1s.5-5.2,1.4-7.4c1-2.1,2.3-3.8,4.1-5,1.8-1.2,3.8-1.8,6.1-1.8s4.4.6,6.1,1.8c1.8,1.2,3.1,2.8,4.1,4.9,1,2.1,1.4,4.5,1.4,7.3s-.5,5.1-1.5,7.2M429.5,104.7c-1,2.1-2.4,3.7-4.1,4.8-1.8,1.1-3.8,1.7-6.1,1.7s-4.3-.6-6-1.7c-1.7-1.1-3-2.7-4-4.8-1-2-1.4-4.4-1.4-7.1s.5-5.2,1.4-7.4c1-2.1,2.3-3.8,4.1-5,1.8-1.2,3.8-1.8,6.1-1.8s4.4.6,6.1,1.8c1.8,1.2,3.1,2.8,4.1,4.9,1,2.1,1.4,4.5,1.4,7.3s-.5,5.1-1.5,7.2M441.4,110.8h-4.5s0,0,0,0v-4.5s0,0,0,0h4.5v4.6ZM441.4,88.1h-4.6v-4.6h4.6v4.6ZM468.3,104.7c-1,2.1-2.4,3.7-4.1,4.8-1.8,1.1-3.8,1.7-6.1,1.7s-4.3-.6-6-1.7c-1.7-1.1-3.1-2.7-4-4.8-1-2-1.4-4.4-1.4-7.1s.5-5.2,1.4-7.4c1-2.1,2.3-3.8,4.1-5,1.8-1.2,3.8-1.8,6.1-1.8s4.4.6,6.1,1.8c1.8,1.2,3.1,2.8,4.1,4.9,1,2.1,1.4,4.5,1.4,7.3s-.5,5.1-1.5,7.2M486.2,110.6h-5.8v-23.1l-6.1,3.8v-4.9l7-4.8h4.9v29ZM461,89.4c-.8-.8-1.8-1.2-2.9-1.2s-2.1.4-2.9,1.2c-.8.8-1.5,1.9-1.9,3.3-.5,1.4-.7,3.1-.7,4.9s.2,3.3.7,4.6c.5,1.3,1.1,2.4,2,3.1.8.7,1.8,1.1,2.9,1.1s2-.4,2.9-1.1c.8-.7,1.5-1.8,1.9-3.1.5-1.4.7-2.9.7-4.6s-.2-3.5-.7-4.9c-.5-1.4-1.1-2.5-2-3.3M422.3,89.4c-.8-.8-1.8-1.2-2.9-1.2s-2,.4-2.9,1.2c-.8.8-1.5,1.9-2,3.3-.5,1.4-.7,3.1-.7,4.9s.2,3.3.7,4.6c.5,1.3,1.1,2.4,2,3.1.8.7,1.8,1.1,2.9,1.1s2.1-.4,2.9-1.1c.8-.7,1.5-1.8,1.9-3.1.5-1.4.7-2.9.7-4.6s-.2-3.5-.7-4.9c-.5-1.4-1.1-2.5-2-3.3M424.2,92.7c-.5-1.4-1.1-2.5-2-3.3-.8-.8-1.8-1.2-2.9-1.2s-2,.4-2.9,1.2c-.8.8-1.5,1.9-2,3.3-.5,1.4-.7,3.1-.7,4.9s.2,3.3.7,4.6c.5,1.3,1.1,2.4,2,3.1.8.7,1.8,1.1,2.9,1.1s2.1-.4,2.9-1.1c.8-.7,1.5-1.8,1.9-3.1.5-1.4.7-2.9.7-4.6s-.2-3.5-.7-4.9M424.2,92.7c-.5-1.4-1.1-2.5-2-3.3-.8-.8-1.8-1.2-2.9-1.2s-2,.4-2.9,1.2c-.8.8-1.5,1.9-2,3.3-.5,1.4-.7,3.1-.7,4.9s.2,3.3.7,4.6c.5,1.3,1.1,2.4,2,3.1.8.7,1.8,1.1,2.9,1.1s2.1-.4,2.9-1.1c.8-.7,1.5-1.8,1.9-3.1.5-1.4.7-2.9.7-4.6s-.2-3.5-.7-4.9M424.2,92.7c-.5-1.4-1.1-2.5-2-3.3-.8-.8-1.8-1.2-2.9-1.2s-2,.4-2.9,1.2c-.8.8-1.5,1.9-2,3.3-.5,1.4-.7,3.1-.7,4.9s.2,3.3.7,4.6c.5,1.3,1.1,2.4,2,3.1.8.7,1.8,1.1,2.9,1.1s2.1-.4,2.9-1.1c.8-.7,1.5-1.8,1.9-3.1.5-1.4.7-2.9.7-4.6s-.2-3.5-.7-4.9M424.2,92.7c-.5-1.4-1.1-2.5-2-3.3-.8-.8-1.8-1.2-2.9-1.2s-2,.4-2.9,1.2c-.8.8-1.5,1.9-2,3.3-.5,1.4-.7,3.1-.7,4.9s.2,3.3.7,4.6c.5,1.3,1.1,2.4,2,3.1.8.7,1.8,1.1,2.9,1.1s2.1-.4,2.9-1.1c.8-.7,1.5-1.8,1.9-3.1.5-1.4.7-2.9.7-4.6s-.2-3.5-.7-4.9"/>
  </g>
</svg>