<?xml version="1.0" encoding="UTF-8"?>
<svg id="Layer_1" xmlns="http://www.w3.org/2000/svg" version="1.1" viewBox="0 0 566.9 566.9">
  <!-- Generator: Adobe Illustrator 30.0.0, SVG Export Plug-In . SVG Version: 2.1.1 Build 123)  -->
  <defs>
    <style>
      .st0 {
        fill: #552c80;
      }

      .st1 {
        fill: none;
        stroke: #552c80;
        stroke-linecap: round;
        stroke-linejoin: round;
        stroke-width: 12px;
      }
    </style>
  </defs>
  <g>
    <polygon class="st1" points="-273.2 -13.9 -365.9 -106.6 -365.9 -64.1 -604.3 -64.1 -604.3 36.2 -365.9 36.2 -365.9 78.8 -273.2 -13.9"/>
    <polygon class="st1" points="-547.9 171.9 -455.1 264.7 -455.1 222.1 -216.7 222.1 -216.7 121.8 -455.1 121.8 -455.1 79.2 -547.9 171.9"/>
  </g>
  <g>
    <g>
      <g>
        <path class="st0" d="M307.2,398.1h0c-6,0-11.6-2.3-15.8-6.6-4.2-4.2-6.5-9.8-6.5-15.8,0-6,2.3-11.6,6.6-15.8,4.2-4.2,9.8-6.5,15.7-6.5h0c6,0,11.6,2.3,15.8,6.6,4.2,4.2,6.5,9.8,6.5,15.8h0c0,6-2.3,11.6-6.6,15.8-4.2,4.2-9.8,6.5-15.7,6.5ZM307.3,365.3c-2.8,0-5.4,1.1-7.4,3.1-2,2-3.1,4.6-3.1,7.4,0,2.8,1.1,5.4,3.1,7.4,2,2,4.6,3.1,7.4,3.1h0c2.8,0,5.4-1.1,7.4-3.1,2-2,3.1-4.6,3.1-7.4h0c0-2.8-1.1-5.4-3.1-7.4-2-2-4.6-3.1-7.4-3.1h0Z"/>
        <path class="st0" d="M259.7,322.2h0c-6,0-11.6-2.3-15.8-6.6-4.2-4.2-6.5-9.8-6.5-15.8,0-6,2.3-11.6,6.6-15.8,4.2-4.2,9.8-6.5,15.7-6.5h0c12.3,0,22.3,10,22.3,22.3h0c0,12.3-10,22.3-22.3,22.3ZM259.7,289.4c-2.8,0-5.4,1.1-7.4,3.1-2,2-3.1,4.6-3.1,7.4,0,2.8,1.1,5.4,3.1,7.4s4.6,3.1,7.4,3.1h0c5.8,0,10.5-4.7,10.5-10.5,0-5.8-4.7-10.5-10.5-10.5h0ZM276.1,299.9h0,0Z"/>
      </g>
      <path class="st0" d="M248.3,398c-1.1,0-2.2-.3-3.2-.9-2.7-1.8-3.5-5.4-1.7-8.2l70.3-108.5c1.8-2.7,5.4-3.5,8.2-1.7,2.7,1.8,3.5,5.4,1.7,8.2l-70.3,108.5c-1.1,1.7-3,2.7-5,2.7Z"/>
    </g>
    <g>
      <path class="st0" d="M283.5,452.6c-93.2,0-169.1-75.9-169.1-169.1s75.9-169.1,169.1-169.1,169.1,75.9,169.1,169.1-75.9,169.1-169.1,169.1ZM283.5,126.1c-86.7,0-157.3,70.6-157.3,157.3s70.6,157.3,157.3,157.3,157.3-70.6,157.3-157.3-70.6-157.3-157.3-157.3Z"/>
      <path class="st0" d="M360.8,431.1c-3.3,0-5.9-2.6-5.9-5.9v-127.5c0-3.3,2.6-5.9,5.9-5.9h24.5l-101.8-114.5-101.8,114.5h24.5c3.3,0,5.9,2.6,5.9,5.9v127.5c0,3.3-2.6,5.9-5.9,5.9s-5.9-2.6-5.9-5.9v-121.6h-31.7c-2.3,0-4.4-1.4-5.4-3.5-1-2.1-.6-4.6,1-6.3l114.9-129.3c1.1-1.3,2.7-2,4.4-2h0c1.7,0,3.3.7,4.4,2l114.9,129.3c1.5,1.7,1.9,4.2,1,6.3-1,2.1-3.1,3.5-5.4,3.5h-31.7v121.6c0,3.3-2.6,5.9-5.9,5.9Z"/>
    </g>
  </g>
</svg>