<?xml version="1.0" encoding="UTF-8"?>
<svg id="Layer_1" xmlns="http://www.w3.org/2000/svg" version="1.1" viewBox="0 0 566.9 566.9">
  <!-- Generator: Adobe Illustrator 30.0.0, SVG Export Plug-In . SVG Version: 2.1.1 Build 123)  -->
  <defs>
    <style>
      .st0 {
        fill: #552c80;
      }

      .st1 {
        fill: none;
        stroke: #552c80;
        stroke-linecap: round;
        stroke-linejoin: round;
        stroke-width: 12px;
      }
    </style>
  </defs>
  <g>
    <polygon class="st1" points="-273.2 -13.9 -365.9 -106.6 -365.9 -64.1 -604.3 -64.1 -604.3 36.2 -365.9 36.2 -365.9 78.8 -273.2 -13.9"/>
    <polygon class="st1" points="-547.9 171.9 -455.1 264.7 -455.1 222.1 -216.7 222.1 -216.7 121.8 -455.1 121.8 -455.1 79.2 -547.9 171.9"/>
  </g>
  <path class="st0" d="M446.6,275.5h-74.8v-72.5c0-2.5-2-4.5-4.5-4.5h-81.6s0,0,0,0v-1.2c0-.1,0-.2,0-.3v-77.8c0-2.5-2-4.5-4.5-4.5H120.3c-2.5,0-4.5,2-4.5,4.5v160.9c0,2.5,2,4.5,4.5,4.5h77v83.8c0,2.5,2,4.5,4.5,4.5h74.8v74.8c0,2.5,2,4.5,4.5,4.5h165.4c2.5,0,4.5-2,4.5-4.5v-167.7c0-2.5-2-4.5-4.5-4.5ZM362.8,207.6v68h-77v-68h77ZM124.8,123.7h151.8v70h-.1v17.5h.1v64l-151.8.3V123.7ZM206.4,363.9v-79.3c0-.5-.1.5-.3,0l70.6-.3v79.6h-70.2ZM442.1,443.2h-156.4v-66h0v-17.6h0v-75h156.4v158.7Z"/>
</svg>