<?xml version="1.0" encoding="UTF-8"?>
<svg id="Layer_1" xmlns="http://www.w3.org/2000/svg" version="1.1" viewBox="0 0 566.9 566.9">
  <!-- Generator: Adobe Illustrator 30.0.0, SVG Export Plug-In . SVG Version: 2.1.1 Build 123)  -->
  <defs>
    <style>
      .st0 {
        fill: #552c80;
      }

      .st1 {
        fill: none;
        stroke: #552c80;
        stroke-linecap: round;
        stroke-linejoin: round;
        stroke-width: 12px;
      }
    </style>
  </defs>
  <g>
    <polygon class="st1" points="-273.2 -13.9 -365.9 -106.6 -365.9 -64.1 -604.3 -64.1 -604.3 36.2 -365.9 36.2 -365.9 78.8 -273.2 -13.9"/>
    <polygon class="st1" points="-547.9 171.9 -455.1 264.7 -455.1 222.1 -216.7 222.1 -216.7 121.8 -455.1 121.8 -455.1 79.2 -547.9 171.9"/>
  </g>
  <g>
    <g>
      <g>
        <path class="st0" d="M998,292.3h0c-6,0-11.6-2.3-15.8-6.6-4.2-4.2-6.5-9.8-6.5-15.8,0-6,2.3-11.6,6.6-15.8,4.2-4.2,9.8-6.5,15.7-6.5h0c6,0,11.6,2.3,15.8,6.6,4.2,4.2,6.5,9.8,6.5,15.8h0c0,6-2.3,11.6-6.6,15.8-4.2,4.2-9.8,6.5-15.7,6.5ZM998,259.5c-2.8,0-5.4,1.1-7.4,3.1-2,2-3.1,4.6-3.1,7.4,0,2.8,1.1,5.4,3.1,7.4,2,2,4.6,3.1,7.4,3.1h0c2.8,0,5.4-1.1,7.4-3.1,2-2,3.1-4.6,3.1-7.4h0c0-2.8-1.1-5.4-3.1-7.4-2-2-4.6-3.1-7.4-3.1h0Z"/>
        <path class="st0" d="M950.5,216.4h0c-6,0-11.6-2.3-15.8-6.6-4.2-4.2-6.5-9.8-6.5-15.8,0-6,2.3-11.6,6.6-15.8,4.2-4.2,9.8-6.5,15.7-6.5h0c12.3,0,22.3,10,22.3,22.3h0c0,12.3-10,22.3-22.3,22.3ZM950.5,183.6c-2.8,0-5.4,1.1-7.4,3.1-2,2-3.1,4.6-3.1,7.4,0,2.8,1.1,5.4,3.1,7.4s4.6,3.1,7.4,3.1h0c5.8,0,10.5-4.7,10.5-10.5,0-5.8-4.7-10.5-10.5-10.5h0ZM966.9,194.1h0,0Z"/>
      </g>
      <path class="st0" d="M939.1,292.2c-1.1,0-2.2-.3-3.2-.9-2.7-1.8-3.5-5.4-1.7-8.2l70.3-108.5c1.8-2.7,5.4-3.5,8.2-1.7,2.7,1.8,3.5,5.4,1.7,8.2l-70.3,108.5c-1.1,1.7-3,2.7-5,2.7Z"/>
    </g>
    <g>
      <path class="st0" d="M974.3,346.8c-93.2,0-169.1-75.9-169.1-169.1S881,8.6,974.3,8.6s169.1,75.9,169.1,169.1-75.9,169.1-169.1,169.1ZM974.3,20.4c-86.7,0-157.3,70.6-157.3,157.3s70.6,157.3,157.3,157.3,157.3-70.6,157.3-157.3-70.6-157.3-157.3-157.3Z"/>
      <path class="st0" d="M1051.6,325.3c-3.3,0-5.9-2.6-5.9-5.9v-127.5c0-3.3,2.6-5.9,5.9-5.9h24.5l-101.8-114.5-101.8,114.5h24.5c3.3,0,5.9,2.6,5.9,5.9v127.5c0,3.3-2.6,5.9-5.9,5.9s-5.9-2.6-5.9-5.9v-121.6h-31.7c-2.3,0-4.4-1.4-5.4-3.5-1-2.1-.6-4.6,1-6.3l114.9-129.3c1.1-1.3,2.7-2,4.4-2h0c1.7,0,3.3.7,4.4,2l114.9,129.3c1.5,1.7,1.9,4.2,1,6.3-1,2.1-3.1,3.5-5.4,3.5h-31.7v121.6c0,3.3-2.6,5.9-5.9,5.9Z"/>
    </g>
  </g>
  <g>
    <path class="st1" d="M392.3,253.7l-62.7-113.8c-20.5-35.5-71.8-35.5-92.3,0l-135,233.8c-20.5,35.5,5.1,79.9,46.2,79.9h270c41,0,66.7-44.4,46.2-79.9l-50.2-81.8"/>
    <path class="st1" d="M365.1,201.4"/>
    <path class="st0" d="M319.9,233.3l-29.5,114.3c-1.7,6.8-4.5,10.3-8.2,10.3s-6.4-3.4-8-10.3l-27.2-114.3c-.7-2.5-1-5.1-1-7.7,0-9.6,3.7-17.8,11-24.8,7.3-7,16.3-10.4,26.8-10.4s18.1,3.6,25.7,10.8c7.6,7.2,11.3,15.4,11.3,24.8s-.3,4.9-1,7.3ZM310.3,391.2c0,7.4-2.7,13.8-8,19.2-5.3,5.4-11.8,8.1-19.4,8.1s-13.9-2.7-19.2-8.1c-5.3-5.4-8-11.8-8-19.2s2.7-14.1,8-19.5c5.3-5.4,11.7-8.1,19.2-8.1s14.1,2.7,19.4,8.1c5.3,5.4,8,11.9,8,19.5Z"/>
  </g>
</svg>